<svg height="480pt" viewBox="-16 0 480 480.0001" width="480pt" xmlns="http://www.w3.org/2000/svg"><path d="m168 344 16 24-16 40-32-24zm0 0" fill="#1e81ce"/><path d="m104 344 32 40-32 24-16-40zm0 0" fill="#1e81ce"/><path d="m168 344c53.019531 0 96 42.980469 96 96v32h-256v-32c0-53.019531 42.980469-96 96-96l-16 24 16 40 32-24 32 24 16-40zm0 0" fill="#3d9ae2"/><path d="m56 240c.027344-8.824219 7.175781-15.972656 16-16h8v32h-8c-8.808594-.066406-15.933594-7.191406-16-16zm0 0" fill="#f1cfa2"/><path d="m200 224c8.824219.027344 15.972656 7.175781 16 16-.066406 8.808594-7.191406 15.933594-16 16h-8v-32zm0 0" fill="#f1cfa2"/><path d="m168 308.71875v35.28125l-32 40-32-40v-35.28125c5.058594 2.160156 10.5 3.277344 16 3.28125h32c5.5-.003906 10.941406-1.121094 16-3.28125zm0 0" fill="#ffdaaa"/><path d="m192 224v48c-.035156 15.910156-9.445312 30.300781-24 36.71875-5.058594 2.160156-10.5 3.277344-16 3.28125h-32c-5.5-.003906-10.941406-1.121094-16-3.28125-14.554688-6.417969-23.964844-20.808594-24-36.71875v-56s64-8 88-40c0 0 8 24 24 32zm0 0" fill="#ffdaaa"/><path d="m72 224c-8.824219.027344-15.972656 7.175781-16 16v-48c0-44.183594 35.816406-80 80-80s80 35.816406 80 80v48c-.027344-8.824219-7.175781-15.972656-16-16h-8v-16c-16-8-24-32-24-32-24 32-88 40-88 40v8zm0 0" fill="#787680"/><path d="m344 8c53.019531 0 96 42.980469 96 96s-42.980469 96-96 96c-19.984375.035156-39.46875-6.234375-55.679688-17.917969l-40.320312 17.917969 17.921875-40.320312c-11.683594-16.210938-17.957031-35.695313-17.921875-55.679688 0-53.019531 42.980469-96 96-96zm0 0" fill="#ffde55"/><path d="m176 336.40625v-22.902344c14.832031-8.5625 23.976562-24.378906 24-41.503906v-8c13.253906 0 24-10.746094 24-24v-48c0-48.601562-39.398438-88-88-88s-88 39.398438-88 88v48c0 13.253906 10.746094 24 24 24v8c.023438 17.125 9.167969 32.941406 24 41.503906v22.902344c-54.121094 4.210938-95.9140625 49.3125-96 103.59375v32c0 4.417969 3.582031 8 8 8h256c4.417969 0 8-3.582031 8-8v-32c-.085938-54.28125-41.878906-99.382812-96-103.59375zm24-88.40625v-16c4.417969 0 8 3.582031 8 8s-3.582031 8-8 8zm-128 0c-4.417969 0-8-3.582031-8-8s3.582031-8 8-8zm7-39.9375c-4 .503906-7 3.90625-7 7.9375-2.730469.027344-5.4375.523438-8 1.472656v-25.472656c0-39.765625 32.234375-72 72-72s72 32.234375 72 72v25.472656c-2.5625-.949218-5.269531-1.445312-8-1.472656v-8c0-3.03125-1.710938-5.804688-4.425781-7.160156-10.613281-5.304688-18.03125-21.601563-20-27.375-.945313-2.816406-3.371094-4.875-6.304688-5.351563-2.929687-.476562-5.882812.714844-7.667969 3.085938-21.65625 28.882812-81.992187 36.800781-82.601562 36.863281zm9 63.9375v-49.160156c15.777344-2.777344 54.207031-11.414063 77.601562-32.511719 4.328126 8.726563 10.628907 16.324219 18.398438 22.199219v59.472656c0 17.671875-14.328125 32-32 32h-32c-17.671875 0-32-14.328125-32-32zm24 69.191406v-21.910156c2.640625.460938 5.316406.703125 8 .71875h32c2.683594-.015625 5.359375-.257812 8-.71875v21.910156l-24 30.007813zm12.601562 41.359375-17.050781 12.800781-10.558593-26.398437 7.59375-11.402344zm42.816407-25.015625 7.589843 11.402344-10.558593 26.398438-17.050781-12.800782zm88.582031 106.464844h-240v-24c.070312-42.40625 30.34375-78.746094 72.039062-86.480469l-6.695312 10.039063c-1.46875 2.1875-1.769531 4.960937-.800781 7.410156l16 40c.925781 2.3125 2.875 4.0625 5.273437 4.734375.710938.195313 1.445313.296875 2.183594.296875 1.730469 0 3.414062-.5625 4.800781-1.601562l27.199219-20.398438 27.199219 20.398438c1.386719 1.039062 3.070312 1.601562 4.800781 1.601562.730469-.003906 1.457031-.101562 2.160156-.296875 2.398438-.671875 4.347656-2.421875 5.273438-4.734375l16-40c.96875-2.449219.667968-5.222656-.800782-7.410156l-6.632812-10.039063c41.679688 7.75 71.933594 44.085938 72 86.480469zm0 0"/><path d="m344 0c-38.117188-.0390625-73.195312 20.800781-91.394531 54.296875-18.195313 33.496094-16.585938 74.265625 4.195312 106.222656l-16.105469 36.234375c-1.34375 3.023438-.6875 6.5625 1.652344 8.90625 2.34375 2.339844 5.882813 2.996094 8.910156 1.652344l36.214844-16.113281c37.234375 24.203125 85.730469 22.089843 120.722656-5.261719 34.988282-27.347656 48.75-73.898438 34.257813-115.878906-14.492187-41.976563-54.042969-70.121094-98.453125-70.058594zm0 192c-18.316406.015625-36.175781-5.730469-51.046875-16.425781-1.359375-.96875-2.988281-1.488281-4.65625-1.484375-1.121094-.003906-2.226563.230468-3.25.6875l-21.285156 9.460937 9.453125-21.285156c1.152344-2.589844.847656-5.59375-.796875-7.898437-23.539063-33.066407-21.390625-77.945313 5.199219-108.609376 26.585937-30.667968 70.710937-39.152343 106.777343-20.539062 36.066407 18.613281 54.710938 59.492188 45.121094 98.933594-9.59375 39.4375-44.925781 67.1875-85.515625 67.160156zm0 0"/><path d="m306.34375 74.34375-24 24c-3.121094 3.125-3.121094 8.1875 0 11.3125l24 24 11.3125-11.3125-18.34375-18.34375 18.34375-18.34375zm0 0"/><path d="m405.65625 98.34375-24-24-11.3125 11.3125 18.34375 18.34375-18.34375 18.34375 11.3125 11.3125 24-24c3.121094-3.125 3.121094-8.1875 0-11.3125zm0 0"/><path d="m320.585938 141.039062 31.96875-80.007812 14.859374 5.933594-31.972656 80.011718zm0 0"/><path d="m120 232c0 4.417969-3.582031 8-8 8s-8-3.582031-8-8 3.582031-8 8-8 8 3.582031 8 8zm0 0"/><path d="m168 232c0 4.417969-3.582031 8-8 8s-8-3.582031-8-8 3.582031-8 8-8 8 3.582031 8 8zm0 0"/></svg>